<svg xmlns="http://www.w3.org/2000/svg" width="132" height="32" fill="none"><path fill="#4F38DD" d="M21.43 4.946 11.402 23.33c5.76-9.363 17.754-4.865 19.023-3.032L21.436 4.94zM.667 32 18.49 0l2.496 4.33L6.195 32z"/><path fill="#8B82E7" d="M30.415 20.292 21.424 4.935 19.073 9.38s2.816 5.116 4.585 8.34c4.982.506 6.756 2.572 6.756 2.572"/><path fill="#fff" d="M37.304 32h-5.796s-4.76-8.676-7.844-14.286c4.98.506 6.756 2.572 6.756 2.572zM128.351 9.483l-1.712.045s-.712.044-1.09.156a3 3 0 0 0-.979.422 2.3 2.3 0 0 0-.734.734c-.178.29-.267.667-.267 1.09 0 .4.089.734.245 1 .155.29.378.512.667.713s.645.378 1.068.511c.4.156.867.29 1.356.445a24 24 0 0 1 1.735.623 6.2 6.2 0 0 1 1.646.912c.512.378.912.845 1.224 1.423.333.579.489 1.29.489 2.136 0 .934-.178 1.757-.512 2.468-.356.69-.8 1.268-1.379 1.735-.578.467-1.245.801-2.024 1.046a8.8 8.8 0 0 1-2.446.355c-3.648-.044-6.562-.133-6.562-.133l2.18-2.625s3.737.112 4.426.112c.356 0 .734-.045 1.112-.134a2.6 2.6 0 0 0 1.001-.467c.311-.222.556-.467.734-.778.2-.334.289-.734.289-1.201s-.111-.846-.311-1.135a2.7 2.7 0 0 0-.868-.778 6.3 6.3 0 0 0-1.29-.6c-.489-.156-1.001-.334-1.557-.512a11.5 11.5 0 0 1-1.579-.6 5 5 0 0 1-1.423-.913 4.5 4.5 0 0 1-1.001-1.379q-.4-.834-.401-2.068c0-.89.178-1.646.534-2.291a5.2 5.2 0 0 1 1.446-1.58 6.4 6.4 0 0 1 2.046-.934c.779-.222 1.424-.289 2.336-.311 1.646-.045 3.469 0 3.469 0l-1.912 2.536zM107.419 6.702h-.044l8.897 18.127h-3.559l-1.624-4.003h-7.562l-1.579 4.003h-3.47l8.964-18.127zm2.58 12.167-2.691-6.406-2.736 6.406zM85.044 8.75l3.114-1.38v14.702h7.429v2.758h-10.52V8.75zM71.59 10.084H66.25l.69-2.714h13.122l-.69 2.714h-4.67V24.83h-3.114zM56.22 6.702h-.045l8.897 18.127h-3.559l-1.623-4.003h-7.563l-1.579 4.003h-3.47l8.964-18.127zM58.8 18.87l-2.691-6.406-2.736 6.406z"/></svg>