<svg width="85" height="20" viewBox="0 0 85 20" fill="none" xmlns="http://www.w3.org/2000/svg">
<g id="Group">
<path id="S" d="M81.3512 3.48334L79.6385 3.52782C79.6385 3.52782 78.9268 3.5723 78.5486 3.68351C78.1928 3.77248 77.8591 3.90594 77.57 4.10612C77.2808 4.28406 77.0362 4.52873 76.836 4.84012C76.6581 5.12926 76.5691 5.50738 76.5691 5.92998C76.5691 6.33034 76.6581 6.66396 76.8137 6.93087C76.9694 7.22002 77.1919 7.44244 77.481 7.64262C77.7702 7.8428 78.126 8.02074 78.5486 8.1542C78.949 8.30989 79.4161 8.44334 79.9054 8.59903C80.4615 8.77697 81.0398 8.97716 81.6403 9.22183C82.2408 9.44425 82.7969 9.75563 83.2862 10.1337C83.7978 10.5119 84.1982 10.9789 84.5095 11.5572C84.8432 12.1355 84.9989 12.8473 84.9989 13.6925C84.9989 14.6267 84.8209 15.4496 84.4873 16.1614C84.1314 16.8509 83.6866 17.4292 83.1083 17.8963C82.53 18.3633 81.8627 18.697 81.0842 18.9416C80.3058 19.1641 79.505 19.2975 78.6376 19.2975C74.9899 19.253 72.0762 19.1641 72.0762 19.1641L74.2559 16.5395C74.2559 16.5395 77.9926 16.6507 78.6821 16.6507C79.038 16.6507 79.4161 16.6062 79.7942 16.5173C80.1723 16.4283 80.5059 16.2726 80.7951 16.0502C81.1065 15.8278 81.3512 15.5831 81.5291 15.2717C81.7293 14.9381 81.8182 14.5377 81.8182 14.0706C81.8182 13.6035 81.707 13.2254 81.5068 12.9363C81.2844 12.6249 80.9953 12.358 80.6394 12.1578C80.2835 11.9354 79.8609 11.7352 79.3494 11.5572C78.86 11.4016 78.3485 11.2236 77.7924 11.0457C77.2586 10.89 76.747 10.6898 76.2132 10.4451C75.6794 10.2227 75.2123 9.91133 74.7897 9.53322C74.3894 9.1551 74.0335 8.68801 73.7888 8.1542C73.5219 7.59814 73.3885 6.90863 73.3885 6.08567C73.3885 5.19599 73.5664 4.43975 73.9223 3.79473C74.3004 3.14971 74.7897 2.63814 75.368 2.21554C75.9686 1.79294 76.6581 1.48155 77.4143 1.28137C78.1928 1.05895 78.8378 0.992208 79.7497 0.969966C81.3956 0.925482 83.2195 0.969966 83.2195 0.969966L81.3067 3.50559L81.3512 3.48334Z" fill="white"/>
<path id="A" d="M60.4194 0.702148H60.3749L69.2718 18.8295H65.713L64.0893 14.8259H56.527L54.9478 18.8295H51.478L60.4416 0.702148H60.4194ZM62.9995 12.8686L60.3082 6.46286L57.5724 12.8686H62.9995Z" fill="white"/>
<path id="L" d="M38.0439 2.74914L41.1578 1.37012V16.0722H48.5867V18.8302H38.0662V2.74914H38.0439Z" fill="white"/>
<path id="T" d="M24.5891 4.08367H19.251L19.9405 1.37012H33.0634L32.3739 4.08367H27.703V18.8302H24.5891V4.08367Z" fill="white"/>
<path id="A_2" d="M9.21967 0.702148H9.17519L18.0721 18.8295H14.5133L12.8896 14.8259H5.32729L3.7481 18.8295H0.27832L9.24191 0.702148H9.21967ZM11.7998 12.8686L9.10846 6.46286L6.37268 12.8686H11.7998Z" fill="white"/>
</g>
</svg>
