<svg xmlns="http://www.w3.org/2000/svg" width="134" height="38" fill="none"><path fill="#fff" d="M65.334 25.717c-.782.589-1.852 1.177-3.212 1.177-2.605 0-4.92-2.353-4.92-5.442s2.315-5.443 4.92-5.443c1.36 0 2.43.588 3.125 1.177.405.353.752.735 1.07 1.177l1.448-1.471c-.434-.5-.926-.971-1.476-1.383-.955-.706-2.344-1.412-4.167-1.412-3.791 0-6.946 3.236-6.946 7.355s3.155 7.354 6.946 7.354c1.823 0 3.24-.735 4.254-1.47.578-.442 1.1-.913 1.533-1.472l-1.447-1.323a6.2 6.2 0 0 1-1.128 1.176M74.786 14.097c-1.63 0-2.818.647-3.674 1.324-.498.382-.94.823-1.3 1.323l1.244 1.324c.304-.382.636-.706.995-1.03.635-.5 1.547-1.03 2.735-1.03 1.962 0 3.316 1.443 3.316 3.531l-5.112.883c-2.514.441-3.868 1.912-3.868 4.266 0 2.059 1.934 4.118 4.697 4.118 1.437 0 2.487-.53 3.233-1.088a4.9 4.9 0 0 0 1.05-1.118v1.912h1.934V19.54c0-3.089-2.21-5.442-5.25-5.442m3.316 8.09c0 2.824-1.768 4.707-4.283 4.707-1.796 0-2.763-1.03-2.763-2.206 0-1.324.83-2.177 2.487-2.501l4.559-.883zM88.958 14.097c-1.53 0-2.599.575-3.378 1.15-.433.346-.809.72-1.097 1.151v-2.014H82.46v13.81h2.022V20.57c0-2.762 1.876-4.603 4.33-4.603 2.195 0 3.754 1.582 3.754 4.027v8.2h2.021v-8.2c0-3.596-2.31-5.897-5.63-5.897M107.153 16.48c-.312-.44-.709-.822-1.163-1.175-.795-.587-1.93-1.174-3.52-1.174-3.69 0-6.67 3.082-6.67 7.338s2.98 7.337 6.67 7.337c1.59 0 2.725-.587 3.52-1.174.454-.352.851-.733 1.163-1.174v2.055h1.987V7.968h-1.987zm-4.683 10.419c-2.582 0-4.683-2.23-4.683-5.43s2.1-5.43 4.683-5.43c2.385 0 4.683 2.348 4.683 5.43s-2.298 5.43-4.683 5.43M117.932 14.097c-3.842 0-6.973 3.236-6.973 7.355s3.131 7.354 6.973 7.354 6.973-3.236 6.973-7.355-3.13-7.354-6.973-7.354m0 12.797c-2.703 0-4.98-2.383-4.98-5.442s2.277-5.443 4.98-5.443 4.981 2.354 4.981 5.442c0 3.09-2.277 5.443-4.981 5.443M133.418 14.097c-1.63 0-2.736.546-3.522 1.093-.436.316-.814.69-1.135 1.064v-1.87h-2.037v13.81h2.037V20.57c0-2.733 2.038-4.46 4.366-4.46H134v-2.013zM41.534 13.483c-.5 0-.91.414-.91.92 0 .505.41.92.91.92s.91-.415.91-.92-.41-.92-.91-.92"/><path fill="#fff" d="M46.98 12.825c0-4.226-3.414-7.665-7.608-7.665C38.08 5.16 37.19 4 36.7 3.358A8.49 8.49 0 0 0 29.914 0c-4.479 0-8.055 3.152-8.52 7.33C10.194 7.656.883 16.945.066 28.75c-.195 2.83.033 5.523.741 8.733L.923 38h14.631l-.214-.824s-.594-2.333-.594-5.217c0-.767.033-1.495.095-2.194 3.271.273 5.858 3.037 5.858 6.405 0 .388-.014.762-.029 1.14l-.028.69h13.01s.11-.306.2-.709c.451-2.04.59-4.144.404-6.252-.304-3.53-1.208-6.43-2.425-8.738.442-.383.936-.762 1.455-1.15a32 32 0 0 0 1.626-1.289c.832.666 1.736 1.256 2.601 1.816 2.492 1.614 4.65 3.018 4.826 5.682-1.63-.173-2.044-1.006-2.515-1.955-.428-.872-.965-1.954-2.558-1.954-1.26 0-2.596 1.078-2.596 3.07 0 3.244 2.914 6.09 6.238 6.09 4.546 0 7.599-4.111 7.599-10.224 0-1.504-.352-2.96-.728-4.508-.39-1.61-.794-3.272-.794-5.054zM4.29 31.082c0-9.701 6.086-16.724 10.185-16.724 1.455 0 2.13.757 2.13 2.39 0 1.323-.514 2.817-1.103 4.547-.67 1.954-1.455 4.259-1.836 7.157-3.942.33-7.052 3.665-7.052 7.718 0 .172.01.34.024.513H5.06a20.7 20.7 0 0 1-.766-5.596zm3.651 5.596a6 6 0 0 1-.024-.513c0-3.282 2.45-5.988 5.602-6.381a25.151 25.151 0 0 0 .366 6.89H7.936zm14.275-13.563c-.837-1.566-1.56-2.917-1.56-4.105.053-1.945 1.48-2.238 2.33-2.238 1.736 0 4.903 1.462 7.223 5.27-.837.91-1.426 1.979-1.426 3.397 0 .953.18 1.897.39 2.984.385 2.003.86 4.48.385 8.255h-4.603c.114-.652.233-1.715.276-3.378 0-4.556-1.67-7.68-3.015-10.19zm10.418 13.563h-1.76c.472-3.89-.018-6.439-.418-8.504-.194-1.02-.366-1.907-.366-2.73 0-.825.305-1.543.794-2.17 1.013 2.045 1.784 4.637 2.064 7.88a19.4 19.4 0 0 1-.309 5.524zm2.23-18.588c-1.179-1.155-1.978-2.544-1.978-4.508 0-1.246.69-2.568 1.969-2.568 1.189 0 1.826 1.322 1.826 2.568 0 2.007-.766 3.387-1.817 4.508m1.108 8.431c0-1.389.842-1.753 1.289-1.753.751 0 .956.354 1.389 1.222.518 1.044 1.212 2.443 3.613 2.678a5.4 5.4 0 0 1-1.26 2.615c-.033 0-.062.005-.095.005-2.335 0-4.93-1.96-4.93-4.771zm6.857 4.422a6.76 6.76 0 0 0 .828-3.243c0-3.607-2.768-5.4-5.44-7.133-.818-.532-1.626-1.054-2.354-1.62 1.212-1.293 2.13-2.946 2.13-5.37 0-2.213-1.345-3.885-3.133-3.885s-3.277 1.672-3.277 3.885c0 2.376.985 4.062 2.335 5.399-.456.388-.941.752-1.422 1.116-.451.34-.908.685-1.336 1.05-2.42-3.847-5.73-5.692-8.174-5.692-1.712 0-3.566.925-3.637 3.536 0 1.537.794 3.027 1.716 4.747 1.274 2.376 2.858 5.337 2.858 9.543-.048 1.864-.195 2.894-.295 3.392h-1.63c0-.167.004-.34.004-.512 0-4.044-3.09-7.369-7.019-7.718.376-2.702 1.118-4.877 1.75-6.726.633-1.84 1.175-3.43 1.175-4.978 0-2.357-1.256-3.708-3.438-3.708-4.575 0-11.493 7.196-11.493 18.042 0 1.897.242 3.775.718 5.595H1.964c-.594-2.855-.78-5.293-.6-7.837.771-11.1 9.487-19.839 19.982-20.188.142 2.76 1.769 5.59 4.332 5.59a3.15 3.15 0 0 0 3.195-3.09c0-1.37-.823-3.63-6.167-3.813.447-3.488 3.395-6.017 7.204-6.017 2.268 0 4.36 1.04 5.768 2.865.527.685 1.759 2.294 3.694 2.294 3.471 0 6.3 2.846 6.3 6.348 0 1.94.424 3.684.828 5.37.357 1.467.69 2.851.69 4.197 0 4.355-1.693 7.54-4.366 8.557zM22.663 8.647c2.083.072 4.907.532 4.907 2.501 0 .738-.585 1.773-1.888 1.773-1.711 0-2.89-2.142-3.024-4.274z"/></svg>