<svg xmlns="http://www.w3.org/2000/svg" width="149" height="32" fill="none"><mask id="a" width="25" height="26" x="0" y="3" maskUnits="userSpaceOnUse" style="mask-type:luminance"><path fill="#fff" d="M24.93 3.7H.33v24.6h24.6z"/></mask><g mask="url(#a)"><path fill="#F2F2F2" d="M5.587 11.238h12.995v-3.57H5.587z"/><path fill="#F2F2F2" d="M7.373 20.365V7.666H4.298v12.698z"/><mask id="b" width="50" height="50" x="0" y="3" maskUnits="userSpaceOnUse" style="mask-type:luminance"><path fill="#fff" d="M49.53 28.3c0-13.586-11.014-24.6-24.6-24.6S.33 14.714.33 28.3v.1C.33 41.985 11.342 53 24.93 53c13.586 0 24.6-11.014 24.6-24.6z"/></mask><g mask="url(#b)"><path fill="#0D0B08" d="M49.53 28.3c0-13.586-11.014-24.6-24.6-24.6S.33 14.714.33 28.3v.1C.33 41.985 11.342 53 24.93 53c13.586 0 24.6-11.014 24.6-24.6z"/><path fill="#F2F2F2" d="M25.305 10.743H9.867v3.967h15.438z"/><path fill="#F2F2F2" d="M11.638 21.257V10.743H7.67v10.514zM25.029 3.7H.329v3.968h24.7zM24.93 24.332H.33V28.3h24.6z"/><path fill="#F2F2F2" d="M.33 3.501v24.7h3.967V3.5zM25.305 17.29H9.867v3.967h15.438z"/></g></g><path fill="#F2F2F2" d="M40.555 24.292q-2.576 0-4.422-1.094a7.47 7.47 0 0 1-2.843-3.085q-.996-1.993-.996-4.593t.996-4.592 2.843-3.11 4.422-1.117q3.061 0 5.005 1.53 1.968 1.507 2.454 4.252h-3.426q-.316-1.385-1.36-2.162-1.02-.802-2.722-.802-2.357 0-3.693 1.604t-1.336 4.397 1.336 4.398q1.336 1.58 3.693 1.58 1.701 0 2.721-.73 1.045-.753 1.361-2.065h3.426q-.486 2.624-2.454 4.107-1.944 1.482-5.005 1.482m13.079 0q-1.555 0-2.551-.486-.996-.51-1.482-1.337a3.53 3.53 0 0 1-.486-1.822q0-1.677 1.312-2.721 1.311-1.045 3.936-1.045h3.061v-.291q0-1.24-.705-1.823-.704-.583-1.749-.583-.947 0-1.652.462-.705.437-.875 1.312h-3.037q.122-1.312.875-2.284a4.96 4.96 0 0 1 1.992-1.482q1.215-.535 2.721-.535 2.576 0 4.058 1.288 1.482 1.287 1.482 3.645V24h-2.648l-.292-1.944a4.46 4.46 0 0 1-1.506 1.604q-.948.631-2.454.631m.704-2.43q1.337 0 2.066-.875.753-.875.947-2.162h-2.648q-1.239 0-1.774.461-.534.438-.534 1.094 0 .705.534 1.093.535.39 1.41.389m12.93 2.43q-1.605 0-2.818-.51-1.215-.535-1.944-1.459a4.2 4.2 0 0 1-.875-2.138h3.134q.146.705.778 1.215.656.486 1.676.486t1.482-.413q.486-.413.486-.947 0-.778-.68-1.045-.68-.291-1.895-.56a21 21 0 0 1-1.58-.412 8 8 0 0 1-1.481-.608 3.4 3.4 0 0 1-1.07-.971q-.413-.608-.413-1.482 0-1.605 1.264-2.697 1.287-1.094 3.596-1.094 2.138 0 3.401.996 1.288.997 1.531 2.746h-2.94q-.267-1.336-2.017-1.336-.874 0-1.36.34-.462.34-.462.85 0 .535.705.85.705.316 1.87.584 1.264.291 2.309.656 1.069.34 1.7 1.044.633.681.632 1.968a3.4 3.4 0 0 1-.583 2.017q-.607.9-1.75 1.41-1.141.51-2.696.51M78.828 24q-1.895 0-3.038-.923-1.142-.925-1.142-3.28v-5.248h-2.065v-2.6h2.066l.364-3.232h2.745v3.232h3.256v2.6h-3.256v5.272q0 .874.365 1.215.389.316 1.312.316h1.506V24zm3.641 0V11.949h2.746l.267 1.628a4.2 4.2 0 0 1 1.53-1.385q.973-.535 2.236-.535 2.794 0 3.96 2.163a4.7 4.7 0 0 1 1.75-1.58 5.2 5.2 0 0 1 2.43-.583q2.356 0 3.62 1.41 1.263 1.409 1.263 4.13V24h-3.11v-6.512q0-1.555-.607-2.38-.583-.827-1.822-.827-1.264 0-2.041.924-.753.923-.754 2.575V24h-3.11v-6.512q0-1.555-.607-2.38-.607-.827-1.87-.827-1.24 0-2.017.924-.753.923-.754 2.575V24zm25.695.291q-1.555 0-2.551-.485-.996-.51-1.482-1.337a3.53 3.53 0 0 1-.486-1.822q0-1.677 1.312-2.721 1.311-1.045 3.936-1.045h3.061v-.291q0-1.24-.705-1.823-.703-.583-1.749-.583-.948 0-1.652.462-.704.437-.875 1.312h-3.037q.122-1.312.875-2.284a4.96 4.96 0 0 1 1.992-1.482q1.215-.535 2.721-.535 2.576 0 4.058 1.288 1.482 1.287 1.482 3.645V24h-2.648l-.292-1.944a4.45 4.45 0 0 1-1.506 1.604q-.948.631-2.454.631m.704-2.43q1.337.001 2.066-.874.753-.875.947-2.162h-2.648q-1.239 0-1.774.461-.534.438-.534 1.094 0 .705.534 1.093.535.39 1.409.389m13.052-1.457a6.5 6.5 0 0 1-1.629-.194l-.898.899q.413.218 1.118.364.703.146 2.283.292 2.405.218 3.498 1.142t1.094 2.55q0 1.07-.583 2.017-.582.973-1.798 1.555-1.215.608-3.109.608-2.577 0-4.156-.972-1.579-.948-1.579-2.867 0-1.628 1.579-2.818a6 6 0 0 1-.85-.462 5 5 0 0 1-.607-.51v-.56l2.113-2.234q-1.409-1.24-1.409-3.183 0-1.215.583-2.211a4.35 4.35 0 0 1 1.701-1.58q1.093-.582 2.649-.583 1.02 0 1.895.292h4.568v1.895l-2.066.146q.486.923.486 2.04 0 1.215-.583 2.212-.582.996-1.7 1.579-1.094.583-2.6.583m0-2.381q.947 0 1.554-.51.633-.51.632-1.458 0-.948-.632-1.458-.607-.51-1.554-.51-.996 0-1.604.51t-.608 1.458.608 1.458 1.604.51m-2.916 7.459q0 .9.825 1.336.85.462 2.067.462 1.166 0 1.895-.486.728-.462.729-1.263a1.41 1.41 0 0 0-.487-1.094q-.462-.437-1.871-.534a19 19 0 0 1-1.846-.219q-.704.39-1.02.85a1.75 1.75 0 0 0-.292.948m12.108-15.404q-.85 0-1.409-.51-.535-.51-.535-1.288t.535-1.263q.558-.51 1.409-.51.85 0 1.385.51.558.486.559 1.263 0 .777-.559 1.288-.535.51-1.385.51M129.556 24V11.949h3.111V24zm11.046.291q-1.847 0-3.256-.801a5.9 5.9 0 0 1-2.235-2.235q-.801-1.434-.802-3.28 0-1.848.802-3.28a5.9 5.9 0 0 1 2.235-2.236q1.409-.802 3.256-.802 2.308 0 3.888 1.215 1.58 1.19 2.016 3.304h-3.28a2.33 2.33 0 0 0-.971-1.36q-.705-.51-1.677-.51-1.287 0-2.187.972-.899.97-.899 2.696t.899 2.697q.9.972 2.187.972.972 0 1.677-.486.728-.485.971-1.385h3.28q-.436 2.041-2.016 3.28-1.58 1.24-3.888 1.24"/></svg>