<svg xmlns="http://www.w3.org/2000/svg" width="25" height="24" fill="none"><path fill="#000" d="m17.667 12.228-2.241 2.241c-1.131 1.11-2.936 1.11-4.047 0a2.87 2.87 0 0 1-.138-3.887l.099-.12a.474.474 0 0 1 .674-.04.474.474 0 0 1 .04.675l-.08.1a1.88 1.88 0 0 0 .08 2.598c.734.734 1.944.734 2.697 0l2.242-2.242a1.93 1.93 0 0 0 0-2.697 1.92 1.92 0 0 0-2.599-.08l-.119.1a.474.474 0 0 1-.674-.04.474.474 0 0 1 .04-.674l.118-.1a2.876 2.876 0 0 1 3.908.12c1.11 1.11 1.11 2.915 0 4.046m-10.334-.456L9.594 9.53a2.85 2.85 0 0 1 4.027 0 2.83 2.83 0 0 1 .138 3.888l-.119.119a.474.474 0 0 1-.674.06.474.474 0 0 1-.04-.675l.12-.119a1.903 1.903 0 0 0-.1-2.598 1.87 1.87 0 0 0-2.677 0l-2.262 2.241c-.733.734-.733 1.944 0 2.698a1.92 1.92 0 0 0 2.599.079l.119-.1a.474.474 0 0 1 .674.04.474.474 0 0 1-.04.675l-.118.099a2.875 2.875 0 0 1-3.908-.12 2.873 2.873 0 0 1 0-4.045"/></svg>