<svg xmlns="http://www.w3.org/2000/svg" width="19" height="18" fill="none"><path fill="#241D16" d="m1.406 14.719.719-2.438c.125-.437.375-.844.688-1.156l9.5-9.5a2.02 2.02 0 0 1 2.843 0l1.219 1.219c.094.094.188.219.25.312a1.994 1.994 0 0 1-.25 2.532l-9.5 9.5c-.031.03-.094.062-.125.124a3.3 3.3 0 0 1-1.031.563l-2.438.719-1.344.375a.64.64 0 0 1-.718-.188.64.64 0 0 1-.188-.718zm1.938-1.281-.5 1.718 1.719-.5.718-.219c.219-.062.375-.156.532-.312l7.156-7.156L11.03 5.03l-7.156 7.157c-.031 0-.031.03-.062.062-.126.125-.188.281-.25.469zM8.75 15.5h9.5a.76.76 0 0 1 .75.75.74.74 0 0 1-.75.75h-9.5a.72.72 0 0 1-.75-.75.74.74 0 0 1 .75-.75"/></svg>