<svg xmlns="http://www.w3.org/2000/svg" width="20" height="15" fill="none"><path fill="#241D16" d="M4 4a1.5 1.5 0 0 1-1.312-.75c-.282-.437-.282-1.031 0-1.5C2.968 1.313 3.438 1 4 1c.531 0 1 .313 1.281.75.282.469.282 1.063 0 1.5C5 3.719 4.531 4 4 4m-.5 1h1c.75 0 1.438.25 2 .656a4.2 4.2 0 0 0-.937 1.157A2.1 2.1 0 0 0 4.5 6.5h-1v6h1V12a.74.74 0 0 1 .75-.75A.76.76 0 0 1 6 12v1c0 .563-.469 1-1 1H3c-.562 0-1-.437-1-1v-1.312A3.52 3.52 0 0 1 0 8.5C0 6.594 1.563 5 3.5 5M2 7.188C1.688 7.53 1.5 8 1.5 8.5c0 .531.188 1 .5 1.344zM15.5 6.5c-.406 0-.781.125-1.094.313a4.2 4.2 0 0 0-.937-1.157A3.5 3.5 0 0 1 15.5 5h1C18.406 5 20 6.594 20 8.5a3.57 3.57 0 0 1-2 3.188V13c0 .563-.469 1-1 1h-2c-.562 0-1-.437-1-1v-1a.74.74 0 0 1 .75-.75.76.76 0 0 1 .75.75v.5h1v-6zm3 2c0-.5-.187-.969-.5-1.312v2.656c.313-.344.5-.813.5-1.344m-1-6c0 .563-.312 1.031-.75 1.313-.469.28-1.062.28-1.5 0A1.5 1.5 0 0 1 14.5 2.5c0-.531.281-1 .75-1.281.438-.282 1.031-.282 1.5 0 .438.281.75.75.75 1.281m-7.5 2c-.656 0-1.219-.312-1.531-.875-.313-.531-.313-1.187 0-1.75A1.76 1.76 0 0 1 10 1c.625 0 1.188.344 1.5.875.313.563.313 1.219 0 1.75A1.68 1.68 0 0 1 10 4.5m-.5 1h1C12.406 5.5 14 7.094 14 9a3.57 3.57 0 0 1-2 3.188V14c0 .563-.469 1-1 1H9c-.562 0-1-.437-1-1v-1.812A3.52 3.52 0 0 1 6 9c0-1.906 1.563-3.5 3.5-3.5m0 7v1h1V7h-1v5.5M8 10.344V7.688C7.688 8.03 7.5 8.5 7.5 9c0 .531.188.969.5 1.344m4 0c.313-.344.5-.813.5-1.344 0-.5-.187-.969-.5-1.312z"/></svg>