<svg xmlns="http://www.w3.org/2000/svg" width="18" height="17" fill="none"><path fill="#241D16" d="M8.969 0c.312 0 .562.188.687.438l2.156 4.406 4.782.718c.281.032.5.22.593.5a.74.74 0 0 1-.187.782l-3.469 3.437.813 4.844a.75.75 0 0 1-.281.75c-.25.156-.563.188-.813.063l-4.281-2.313-4.25 2.313a.84.84 0 0 1-.813-.063c-.219-.187-.344-.469-.281-.75l.813-4.844-3.47-3.437a.74.74 0 0 1-.187-.782c.094-.25.313-.468.594-.5l4.781-.718L8.313.438C8.437.188 8.687 0 8.969 0m0 2.469L7.344 5.875c-.125.219-.313.375-.563.406l-3.687.532L5.75 9.469c.188.187.281.437.219.656l-.625 3.75 3.281-1.75a.74.74 0 0 1 .719 0l3.281 1.75L12 10.156a.65.65 0 0 1 .219-.656l2.656-2.687-3.687-.532c-.25-.031-.438-.187-.563-.406z"/></svg>