<svg xmlns="http://www.w3.org/2000/svg" width="136" height="72" fill="none"><path fill="#282B26" d="M126.017 33.806c0-2.826.048-5.432-.045-8.032-.02-.497-.668-.942-.913-1.464-.158-.333-.223-1.068-.123-1.107 1.3-.522 2.636-.948 4.142-1.464.048.9.103 1.454.103 2.013.007 7.412.01 14.825 0 22.237 0 1.036.036 2 1 2.678.184.129.274.519.245.767-.013.117-.413.236-.651.258-.432.042-.871.013-1.307.013q-2.11.002-2.303-2.316c-1.922 2.284-4.351 2.978-7.07 2.526-2.091-.345-3.774-1.477-5.103-3.155-2.771-3.503-2.491-9.515.616-12.648 2.596-2.619 7.428-3.79 11.412-.303v-.006zm.006 6.9c0-.958.042-1.92-.006-2.874-.126-2.42-1.981-4.452-4.455-4.936-2.287-.445-4.548.684-5.496 2.98-1.5 3.627-1.084 7.181.993 10.459 1.313 2.077 3.506 2.89 5.487 2.328 2.013-.567 3.281-2.287 3.468-4.832.077-1.035.013-2.087.016-3.129zM92.164 47.786c-2.133 2.523-4.9 2.584-7.768 1.929-2.893-.661-4.355-2.664-4.267-5.568.077-2.483 1.86-4.338 4.612-4.902 2.313-.471 4.487-.204 6.53 1.06l.338-.173c-.484-1.771-.733-3.652-1.5-5.294-1.3-2.78-4.948-2.787-6.532-.148-.268.445-.5.916-.745 1.377-.41.774-1.161 1.184-1.816.69-.436-.329-.71-1.287-.587-1.854.313-1.442 1.519-2.22 2.819-2.665 4.86-1.667 10.47-.31 11.283 7.11.213 1.948.371 3.903.565 5.851.158 1.61.177 3.306 2.325 3.697-1.467 1.877-4.315 1.21-5.26-1.107v-.006zm-4.565-7.538c-2.574 0-4.312 1.574-4.287 3.896.023 2.694 2.023 4.8 4.526 4.768 2.27-.03 3.939-1.716 3.958-3.99.02-2.968-1.507-4.671-4.193-4.674zM70.287 49.721c-.29-.567-.665-1.106-.858-1.703-1.277-3.913-2.516-7.835-3.88-12.106-.613 1.868-1.133 3.416-1.633 4.968-.8 2.48-1.545 4.977-2.425 7.429-.197.548-.775 1.167-1.31 1.342-.923.3-1.226-.568-1.503-1.265-1.652-4.158-3.277-8.325-4.97-12.467-.404-.984-1.05-1.868-1.559-2.81-.132-.245-.316-.596-.232-.8.084-.193.474-.354.739-.361a69 69 0 0 1 3.925 0c.265.006.652.145.752.342.084.161-.094.606-.287.742-.768.529-.745 1.17-.465 1.948 1.332 3.67 2.648 7.348 4.045 11.235.19-.448.33-.722.423-1.01 1.287-4.009 2.593-8.012 3.828-12.04.268-.875.717-1.172 1.571-1.207.907-.039 1.075.567 1.265 1.203.948 3.116 2.142 6.183 2.751 9.364.436 2.258.22 4.635.22 6.977-.023.261-.245.384-.397.216v.007zM28.38 50.034c-5.352.107-9.559-3.977-9.662-9.38-.09-4.945 3.761-8.926 8.726-9.016 5.48-.097 9.67 3.842 9.641 9.303-.029 5.442-3.68 9.1-8.706 9.093M33.95 42c-.107-2.258-.6-4.364-1.81-6.238-1.258-1.949-2.987-3.142-5.451-2.861-2.345.267-3.69 1.748-4.265 3.86-1.029 3.788-.287 7.307 2.336 10.236 2.861 3.193 7.2 2.229 8.564-1.83.342-1.012.423-2.112.626-3.17zM12.525 32.067c1.568 0 3.01-.052 4.438.035.384.023.781.265 1.107.73-.194.319-.723.706-1.103.728-1.43.088-2.871.036-4.452.036-.032.477-.077.89-.077 1.303-.007 3.79.013 7.584-.013 11.377-.007 1.02.126 1.89 1.135 2.432.233.126.316.532.465.81-.268.106-.532.303-.803.306-1.526.03-3.055.033-4.578 0-.258-.006-.658-.164-.725-.351-.071-.194.106-.616.303-.749.9-.593.97-1.441.964-2.403-.029-4.18-.013-8.357-.013-12.728-.922 0-1.787.077-2.622-.036-.361-.048-.877-.41-1.006-.738.132-.33.66-.671 1.032-.723.806-.11 1.635-.035 2.474-.035.12-1.7.074-3.323.377-4.874.81-4.139 5.626-6.023 9.074-3.565.626.445 1.08 1.216 1.442 1.926.377.748.165 1.484-.706 1.803-.836.306-1.562.094-2-.723a5 5 0 0 1-.442-1.219c-.232-.967-.832-1.538-1.803-1.62-1.049-.086-1.978.333-2.31 1.333a11.4 11.4 0 0 0-.561 3.307c-.023 1.158.245 2.325.403 3.635zM103.141 31.367v3.158c1.364-2.032 3.061-3.141 5.512-2.877 1.752.19 2.926 1.439 2.655 3.048-.084.5-.565 1.23-.965 1.303-.496.09-1.329-.235-1.606-.651-.622-.93-1.048-1.939-2.445-1.7-1.41.242-2.1 1.245-2.371 2.48-.277 1.262-.39 2.575-.435 3.871-.068 2.09.016 4.184-.036 6.274-.022.952.207 1.687 1.023 2.245.238.162.335.539.496.816-.299.123-.599.346-.906.358a79 79 0 0 1-4.184 0c-.27-.006-.645-.142-.764-.342-.087-.145.093-.61.284-.735.903-.597.951-1.455.942-2.406a473 473 0 0 1 0-9.674c.006-.884-.165-1.58-.894-2.184-.235-.193-.284-1.113-.142-1.19 1.152-.626 2.371-1.13 3.836-1.794M45.243 49.234c-.78.278-1.048.452-1.316.455-1.442.03-2.88.039-4.32-.006-.283-.007-.631-.226-.8-.455-.073-.103.246-.471.359-.73.31-.715.839-1.428.861-2.157.094-3.226.023-6.455.052-9.68.006-.93-.139-1.713-.968-2.271-.835-.565-.561-1.075.178-1.445.816-.407 1.667-.752 2.496-1.13.82-.374 1.142-.045 1.142.775 0 .632 0 1.261.103 1.942 1.207-2.09 2.907-3.116 5.3-2.878 1.726.174 2.961 1.462 2.703 3.026-.084.506-.555 1.239-.964 1.322-.49.104-1.339-.219-1.616-.632-.649-.974-1.104-2.012-2.568-1.693-1.516.332-2.232 1.496-2.364 2.806-.249 2.507-.288 5.042-.297 7.564-.007 1.833-.687 3.923 2.019 5.19z"/><path fill="#1F36F9" d="M72.926 34.213c.055-1.12.919-1.946 2.038-1.936.571.007 1.062.2 1.41.558s.526.858.523 1.436v.26h-.02c-.132.991-.968 1.756-1.97 1.72l-1.981-2.035zm0 0c-.026.525.21 1.025.57 1.393Zm0 0 .57 1.393Zm.57 1.393c.362.368.865.623 1.41.642z"/><path fill="#1F36F9" d="M74.974 36.512h-.078l-.106-.006a2.4 2.4 0 0 1-1.48-.713c-.407-.416-.64-.945-.649-1.47h-.003l.006-.117a2.27 2.27 0 0 1 2.303-2.184c.649.01 1.2.23 1.597.636s.603.967.597 1.619v.52h-.064c-.236 1.006-1.104 1.719-2.12 1.719zm-1.78-2.396 1.822 1.87c.806-.022 1.487-.645 1.597-1.493l.019-.226c.003-.51-.152-.942-.448-1.248s-.72-.471-1.226-.477c-.916.003-1.668.645-1.765 1.574m.506 1.296.045.023-.065-.065.02.046zM76.335 41.732c-.306-.288-.716-.449-1.19-.488v-.016h-.268c-1.138.023-1.996.887-1.954 2.013.019.53.283 1.02.657 1.374s.881.597 1.41.587c.523-.006 1.003-.267 1.345-.648a2.14 2.14 0 0 0 .562-1.432c-.007-.571-.197-1.055-.562-1.394z"/><path fill="#1F36F9" d="M74.97 45.47c-.554 0-1.122-.239-1.567-.661-.452-.426-.723-.994-.742-1.558a2.16 2.16 0 0 1 .59-1.59 2.26 2.26 0 0 1 1.626-.69l.532-.007v.048c.436.074.816.255 1.107.526.416.384.638.932.645 1.584a2.4 2.4 0 0 1-.626 1.612c-.416.459-.974.726-1.535.736zm.014-3.974h-.1c-.494.01-.936.197-1.252.529-.303.32-.461.748-.445 1.21.016.425.226.86.577 1.193.352.336.8.513 1.226.516.416-.006.839-.21 1.158-.561.316-.352.497-.807.49-1.255-.006-.503-.17-.92-.477-1.206-.261-.242-.61-.384-1.032-.416l-.142-.013z"/></svg>