<svg xmlns="http://www.w3.org/2000/svg" width="169" height="24" fill="none"><mask id="a" width="169" height="24" x="0" y="0" maskUnits="userSpaceOnUse" style="mask-type:luminance"><path fill="#fff" d="M168.667 0h-168v24h168z"/></mask><g fill="#fff" mask="url(#a)"><path d="M30.678 12.62v-.081c0-.199-.005-.377-.019-.55-.197-4.608-2.56-6.902-6.667-6.902-2.519 0-4.623 1.229-6.193 2.743-1.072-1.842-2.973-2.743-5.614-2.743-2.064 0-3.798.82-5.242 1.924l-.166-1.39H.667v17.846h6.399V11.72c.908-.654 1.856-1.023 2.806-1.023 1.735 0 2.602.984 2.602 3.276v9.496h6.398v-10.93c0-.286 0-.533-.042-.778.95-.654 1.899-1.064 2.89-1.064 1.65 0 2.558 1.023 2.56 3.311v9.461h6.398V12.621M52.139 12.498V5.59h-4.045l-.702 1.064c-1.404-.942-3.095-1.596-5.408-1.596-5.16 0-9.33 3.234-9.33 9.864 0 5.568 2.932 9.048 7.926 9.048 2.204 0 3.872-.707 5.16-1.67v1.129h6.397V12.498zm-9.495 5.865c-2.394 0-3.467-1.432-3.467-3.847s1.114-4.135 4.087-4.135c.909 0 1.734.164 2.477.368v6.672c-.909.574-1.898.942-3.095.942zM111.603 14.462c0-5.935 3.88-9.375 9.784-9.375s9.576 3.438 9.576 9.293-3.716 9.62-9.742 9.62-9.618-3.726-9.618-9.538m12.92-.04c0-2.908-1.238-4.586-3.178-4.586s-3.261 1.678-3.261 4.585 1.28 4.79 3.22 4.79c1.939 0 3.219-1.842 3.219-4.79M147.729 22.61c-1.404.982-4.045 1.39-5.821 1.39-4.499 0-7.182-2.13-7.182-6.795v-6.836h-2.477V5.62h2.477V1.12h6.398V5.62h5.738v4.748h-5.738v5.281c0 2.089.784 3.276 3.137 3.276.908 0 2.147-.245 3.137-.778l.33 4.462zM168.667 12.62v-.081c0-.19-.005-.362-.017-.53-.189-4.621-2.517-6.922-6.711-6.922-2.188 0-4.004.778-5.489 1.924V0h-6.398v23.467h6.398V11.842c.991-.737 2.064-1.146 3.219-1.146 1.776 0 2.683 1.022 2.683 3.316v9.455h6.315zM110.515 19.497c-.206.082-.579.123-.826.123-1.197 0-1.61-.492-1.61-2.088v-4.913c0-5.034-2.394-7.532-6.686-7.532-2.519 0-4.624 1.228-6.193 2.743-.963-1.657-2.597-2.55-4.836-2.714l-.073-.005q-.344-.024-.704-.026h-.01q-.213.002-.42.012l-.14.01q-.143.011-.284.026-.08.009-.16.021a11 11 0 0 0-.422.067q-.11.02-.22.046c-1.796.394-3.328 1.39-4.539 2.56-.962-1.652-2.59-2.545-4.82-2.712l-.094-.007a11 11 0 0 0-.687-.024h-.01a7 7 0 0 0-.436.013q-.052.004-.102.007a7 7 0 0 0-.772.095l-.093.015a9 9 0 0 0-.37.077q-.021.004-.041.009a9 9 0 0 0-.394.106l-.154.05-.204.066q-.12.042-.24.09l-.084.032c-1.268.502-2.376 1.29-3.298 2.18-1.073-1.841-2.973-2.742-5.614-2.742-2.064 0-3.798.819-5.242 1.924l-.166-1.391h-6.11v17.847h6.398V11.72c.909-.655 1.857-1.023 2.807-1.023 1.734 0 2.602.983 2.602 3.275v9.497h6.398v-10.93c0-.287 0-.533-.042-.778.943-.651 1.886-1.059 2.871-1.064q.422 0 .776.087c1.034.256 1.647 1.093 1.775 2.61q.022.272.023.576v9.497h6.403v-10.93q0-.193-.009-.367-.001-.039-.005-.079l-.005-.104q-.008-.118-.017-.235c.941-.647 1.882-1.053 2.864-1.057q.367.001.682.067c1.226.257 1.893 1.285 1.893 3.243v9.46h6.4v-10.93a6 6 0 0 0-.028-.632c-.001-.05-.008-.098-.01-.147.948-.655 1.896-1.062 2.886-1.062 1.651 0 2.56 1.022 2.56 3.316v4.584c0 4.339 2.106 5.404 5.077 5.404 2.064 0 3.261-.492 4.045-.901l-.289-3.602z"/></g></svg>