<svg xmlns="http://www.w3.org/2000/svg" width="134" height="24" fill="none"><path fill="#fff" d="M29.556 20.35V3.681c0-.068.056-.124.125-.124h2.797c.063 0 .116.047.124.11l.262 2.042c.015.114.16.149.225.054 1.106-1.605 3.147-2.717 5.532-2.717 3.606 0 5.969 2.427 5.969 6.225v11.079a.126.126 0 0 1-.125.125h-3.517a.125.125 0 0 1-.125-.125V9.464c0-1.883-1.244-3.128-3.352-3.128-2.458 0-4.117 1.692-4.149 3.894v10.12a.125.125 0 0 1-.125.125h-3.516a.13.13 0 0 1-.125-.126M46.683 20.35V3.682c0-.069.056-.125.124-.125h3.517c.069 0 .125.056.125.125v16.666a.126.126 0 0 1-.125.125h-3.517a.126.126 0 0 1-.124-.125M52.67 20.35V3.682c0-.069.057-.125.126-.125h2.798c.062 0 .115.045.123.108l.38 2.814c.016.12.176.148.232.041 1.112-2.066 2.175-2.934 4.836-2.934h.52c.066 0 .12.053.12.118l1.312 3.322q.002.009-.006.01h-1.087c-3.51 0-5.585 1.882-5.585 5.074v8.238a.126.126 0 0 1-.125.125h-3.517a.126.126 0 0 1-.126-.125M70.364 20.398 63.414 3.73a.124.124 0 0 1 .116-.172h3.814c.052 0 .097.032.116.079l4.799 12.108c.04.105.19.105.231 0L77.26 3.638a.13.13 0 0 1 .115-.079h3.814c.088 0 .15.092.116.172l-6.95 16.667a.12.12 0 0 1-.115.076h-3.76a.13.13 0 0 1-.115-.076M80.66 11.92c0-5.234 3.224-8.873 7.725-8.873 2.507 0 4.613 1.115 5.752 2.858a.125.125 0 0 0 .229-.054l.263-2.184a.125.125 0 0 1 .124-.11h2.796c.069 0 .125.057.125.125V20.35a.125.125 0 0 1-.125.125h-3.485a.126.126 0 0 1-.124-.125v-1.768a.124.124 0 0 0-.226-.073c-1.115 1.526-2.935 2.444-5.201 2.444-4.566 0-7.853-3.702-7.853-9.031m13.278-.031c0-3.353-1.915-5.681-4.66-5.681-2.809 0-4.757 2.362-4.757 5.745 0 3.414 1.915 5.808 4.692 5.808s4.725-2.426 4.725-5.872M99.57 20.35V3.681c0-.068.057-.124.125-.124h2.798c.062 0 .116.047.123.11l.262 2.042c.016.114.16.149.226.054 1.105-1.605 3.146-2.717 5.531-2.717 3.607 0 5.969 2.427 5.969 6.225v11.079a.125.125 0 0 1-.125.125h-3.516a.125.125 0 0 1-.125-.125V9.464c0-1.883-1.245-3.128-3.352-3.128-2.459 0-4.117 1.692-4.149 3.894v10.12a.126.126 0 0 1-.125.125h-3.517a.13.13 0 0 1-.125-.126M115.945 11.92c0-5.234 3.225-8.873 7.725-8.873 2.507 0 4.613 1.115 5.753 2.858a.125.125 0 0 0 .228-.054l.264-2.184a.124.124 0 0 1 .123-.11h2.796c.069 0 .125.057.125.125V20.35a.125.125 0 0 1-.125.125h-3.484a.125.125 0 0 1-.125-.125v-1.768c0-.122-.154-.17-.226-.073-1.115 1.526-2.935 2.444-5.201 2.444-4.564 0-7.853-3.702-7.853-9.031m13.278-.031c0-3.353-1.914-5.681-4.66-5.681-2.809 0-4.757 2.362-4.757 5.745 0 3.414 1.915 5.808 4.693 5.808s4.724-2.426 4.724-5.872"/><path fill="#F3EFEB" d="M10.82 15.067a3.067 3.067 0 1 0 0-6.134 3.067 3.067 0 0 0 0 6.134"/><path fill="#9073F2" d="M15.085 16.059a6.684 6.684 0 0 0-5.126 7.94 6.683 6.683 0 0 0 5.126-7.94M12.201 6.247a6.685 6.685 0 0 0 9.438.524 6.68 6.68 0 0 0-9.438-.524"/><path fill="#AD9D92" d="M0 17.229a6.684 6.684 0 0 1 9.438.525A6.685 6.685 0 0 1 0 17.228M11.68 0a6.683 6.683 0 0 1-5.128 7.94A6.683 6.683 0 0 1 11.681 0"/><path fill="#9073F2" d="M.87 5.26a6.684 6.684 0 0 1 4.244 8.448A6.685 6.685 0 0 1 .871 5.26"/><path fill="#AD9D92" d="M16.479 10.337a6.684 6.684 0 0 1 4.243 8.447 6.687 6.687 0 0 1-4.243-8.447"/></svg>