<svg xmlns="http://www.w3.org/2000/svg" width="84" height="32" fill="none"><g fill="#fff"><path d="M17.248 8.866c-.614-.027-3.367-.218-5.564-2.486C9.17 3.786 9.358.513 9.396 0 9.381.513 9.23 3.79 6.46 6.108 4.038 8.136 1.28 8.038.667 8.003c.661.061 3.386.39 5.552 2.727 2.338 2.521 2.316 5.534 2.299 6.139.053-.635.364-3.483 2.817-5.72 2.433-2.221 5.27-2.284 5.913-2.282zM11.014 28.479l3.347-3.925c0 2.943 3.203 5.829 6.55 5.829 1.444 0 4.271-.49 4.271-2.944 0-5.078-13.505-3.404-13.505-9.753 0-5.916 6.637-5.888 9.379-5.888 3.664 0 6.983 1.559 8.108 2.915l-2.799 3.404c0-1.5-1.298-4.991-5.31-4.991-2.798 0-4.905.779-4.905 2.77 0 4.386 14.515 3.087 14.515 10.388 0 5.108-5.887 5.714-9.639 5.714-4.848 0-10.013-2.857-10.013-3.52M32.166 30.585c.26 0 .866-.087.895-1.183V20.34c-.03-1.097-.347-1.184-.895-1.184-.317 0-.144-1.413-.144-1.413l6.435-.52v12.178c0 1.154.635 1.212.923 1.212.317 0 .115 1.356.115 1.356h-7.474s-.173-1.385.144-1.385zm1.039-16.333c0-1.616 1.5-2.482 2.51-2.482 1.875 0 2.51 1.616 2.51 2.482s-.635 2.54-2.51 2.54c-.866 0-2.51-.693-2.51-2.54M40.91 30.585c.26 0 .865-.087.894-1.183V20.34c-.029-1.096-.347-1.183-.895-1.183-.317 0-.143-1.414-.143-1.414l6.493-.519s-.03.462-.03 1.587c.376-.75 1.386-1.558 3.233-1.558 2.136 0 5.31.808 5.31 4.3V29.4c0 1.154.634 1.212.894 1.212.318 0 .145 1.356.145 1.356h-7.532s-.173-1.385.145-1.385c.26 0 .895-.087.895-1.183v-7.3c0-2.656-.404-3.464-1.847-3.464-.549 0-1.242.52-1.242 1.443v9.321c0 1.154.635 1.212.924 1.212.317 0 .115 1.356.115 1.356h-7.503s-.173-1.385.144-1.385M57.617 24.583c0-5.136 3.376-7.33 7.127-7.33 2.251 0 3.261.722 3.723 1.357v-6.839l6.464.52s.144 1.356-.144 1.356c-.578 0-.895.086-.895 1.183v14.602c0 1.096.606 1.183.895 1.183.317 0 .144 1.356.144 1.356S67.486 32 67.052 32c-5.973 0-9.435-2.308-9.435-7.416m9.435 6.06c.895 0 1.414-.173 1.414-1.212v-9.494c-.49-.721-1.039-1.298-2.164-1.298-2.28 0-3.203 1.24-3.203 5.944 0 5.137 1.962 6.06 3.953 6.06M76.345 30.585c.26 0 .866-.087.894-1.183V20.34c-.028-1.097-.346-1.184-.894-1.184-.318 0-.144-1.413-.144-1.413l6.435-.52v12.178c0 1.154.634 1.212.923 1.212.317 0 .115 1.356.115 1.356H76.2s-.173-1.385.144-1.385m1.039-16.333c0-1.616 1.5-2.482 2.51-2.482 1.876 0 2.51 1.616 2.51 2.482s-.634 2.54-2.51 2.54c-.866 0-2.51-.693-2.51-2.54"/></g></svg>