<svg xmlns="http://www.w3.org/2000/svg" width="144" height="38" fill="none"><g filter="url(#a)"><path fill="#fff" d="M15.358 33.403h-.548L7.226 16.44c-.82-1.794-1.798-2.73-2.892-2.925v-.546h11.141v.546q-2.992.41-1.876 2.925l4.026 9.398 4.027-9.398c.742-1.716.156-2.69-1.72-2.925v-.546h5.59v.546c-.977.234-1.877 1.17-2.697 2.925z"/></g><g filter="url(#b)"><path fill="#fff" d="M30.643 10.941c-2.11 0-3.675-1.52-3.675-3.51 0-1.95 1.564-3.431 3.675-3.431s3.675 1.482 3.675 3.432c0 1.989-1.564 3.51-3.675 3.51m2.893 2.028v17.393c0 1.52.508 2.144 2.228 2.495v.546H25.522v-.546c1.681-.35 2.228-.974 2.228-2.495V18.234c0-1.911-.86-2.418-2.228-2.34v-.546l7.467-2.379z"/></g><g filter="url(#c)"><path fill="#fff" d="M49.251 12.384c5.512 0 8.405 4.563 8.405 9.905 0 6.747-4.26 11.114-10.086 11.114-1.954 0-3.87-.702-5.2-1.871l-3.83 1.871h-.548V9.85c0-1.872-.86-2.38-2.228-2.34v-.546l7.506-2.34h.547v11.972c.704-2.34 2.698-4.212 5.434-4.212m-2.033 19.928c2.62 0 4.379-3.627 4.379-8.268 0-4.601-1.525-8.579-4.926-8.579-1.29 0-2.424.897-2.854 2.262v9.242c0 2.847 1.251 5.343 3.401 5.343"/></g><g filter="url(#d)"><path fill="#fff" d="M71.652 12.97c1.954 0 3.596.818 3.596 2.768 0 1.677-1.016 2.652-2.267 2.652-1.72 0-1.916-1.326-3.362-1.326-2.033 0-3.675 2.457-3.714 5.732v7.644c0 1.56.586 2.027 3.323 2.418v.545H57.656v-.545c1.838-.39 2.463-.858 2.463-2.418V18.234c0-1.911-.86-2.418-2.228-2.34v-.546l7.467-2.379h.547v6.318c.782-4.212 3.4-6.318 5.746-6.318"/></g><g filter="url(#e)"><path fill="#fff" d="m95.15 29.387.508.195c-1.33 3.431-3.597 3.821-4.77 3.821-1.72 0-4.221-1.247-4.378-4.172-.977 2.807-3.245 4.172-5.786 4.172-3.166 0-5.473-2.105-5.473-5.03 0-4.056 2.58-6.357 8.874-6.98l2.385-.235v-2.183c0-3.276-1.173-5.499-3.402-5.499-2.54 0-3.44 2.34-3.049 3.978.509 1.95-.43 2.925-1.759 3.197-1.68.352-3.127-.545-3.049-2.456.078-2.847 3.088-5.81 8.796-5.81 5.278 0 8.249 2.807 8.249 7.136v9.515c0 1.13.469 1.794 1.173 1.794.586 0 1.133-.39 1.68-1.443m-11.299.702c1.134 0 2.111-.858 2.659-2.145v-5.655l-1.915.273c-2.346.351-3.597 1.833-3.597 4.212 0 1.95 1.133 3.315 2.853 3.315"/></g><g filter="url(#f)"><path fill="#fff" d="M116.143 19.755v10.607c0 1.52.547 2.145 2.228 2.496v.545h-10.242v-.545c1.72-.351 2.228-.975 2.228-2.496V20.106c0-2.184-1.055-3.471-2.854-3.471-1.407 0-2.58.624-3.831 1.872v11.855c0 1.52.508 2.145 2.228 2.496v.545H95.658v-.545c1.68-.351 2.228-.975 2.228-2.496V18.234c0-1.911-.86-2.418-2.228-2.34v-.546l7.467-2.379h.547v4.329c1.877-2.418 3.987-4.29 6.607-4.29 3.988 0 5.864 2.691 5.864 6.747"/></g><g filter="url(#g)"><path fill="#fff" d="m132.445 29.543.313.273c-.703 1.209-2.58 3.588-5.278 3.588-3.831 0-6.059-2.457-6.059-6.24V14.061h-3.049v-.546c3.831-1.326 6.841-3.548 8.287-6.24h.548v5.694h5.238v1.092h-5.238V26.97c0 2.067.938 3.86 2.893 3.705 1.133-.078 1.72-.624 2.345-1.131"/></g><g filter="url(#h)"><path fill="#fff" d="M135.925 33.403c-1.76 0-3.167-1.364-3.167-3.158 0-1.716 1.407-3.12 3.167-3.12 1.876 0 3.166 1.404 3.166 3.12 0 1.793-1.407 3.158-3.166 3.158"/></g><defs><filter id="a" width="29.189" height="28.434" x=".333" y="8.969" color-interpolation-filters="sRGB" filterUnits="userSpaceOnUse"><feFlood flood-opacity="0" result="BackgroundImageFix"/><feColorMatrix in="SourceAlpha" result="hardAlpha" values="0 0 0 0 0 0 0 0 0 0 0 0 0 0 0 0 0 0 127 0"/><feOffset/><feGaussianBlur stdDeviation="2"/><feComposite in2="hardAlpha" operator="out"/><feColorMatrix values="0 0 0 0 1 0 0 0 0 0.899271 0 0 0 0 0.606679 0 0 0 0.18 0"/><feBlend in2="BackgroundImageFix" result="effect1_dropShadow_4907_3317"/><feBlend in="SourceGraphic" in2="effect1_dropShadow_4907_3317" result="shape"/></filter><filter id="b" width="18.242" height="37.403" x="21.522" y="0" color-interpolation-filters="sRGB" filterUnits="userSpaceOnUse"><feFlood flood-opacity="0" result="BackgroundImageFix"/><feColorMatrix in="SourceAlpha" result="hardAlpha" values="0 0 0 0 0 0 0 0 0 0 0 0 0 0 0 0 0 0 127 0"/><feOffset/><feGaussianBlur stdDeviation="2"/><feComposite in2="hardAlpha" operator="out"/><feColorMatrix values="0 0 0 0 1 0 0 0 0 0.899271 0 0 0 0 0.606679 0 0 0 0.18 0"/><feBlend in2="BackgroundImageFix" result="effect1_dropShadow_4907_3317"/><feBlend in="SourceGraphic" in2="effect1_dropShadow_4907_3317" result="shape"/></filter><filter id="c" width="29.892" height="36.779" x="31.764" y=".624" color-interpolation-filters="sRGB" filterUnits="userSpaceOnUse"><feFlood flood-opacity="0" result="BackgroundImageFix"/><feColorMatrix in="SourceAlpha" result="hardAlpha" values="0 0 0 0 0 0 0 0 0 0 0 0 0 0 0 0 0 0 127 0"/><feOffset/><feGaussianBlur stdDeviation="2"/><feComposite in2="hardAlpha" operator="out"/><feColorMatrix values="0 0 0 0 1 0 0 0 0 0.899271 0 0 0 0 0.606679 0 0 0 0.18 0"/><feBlend in2="BackgroundImageFix" result="effect1_dropShadow_4907_3317"/><feBlend in="SourceGraphic" in2="effect1_dropShadow_4907_3317" result="shape"/></filter><filter id="d" width="25.592" height="28.434" x="53.656" y="8.969" color-interpolation-filters="sRGB" filterUnits="userSpaceOnUse"><feFlood flood-opacity="0" result="BackgroundImageFix"/><feColorMatrix in="SourceAlpha" result="hardAlpha" values="0 0 0 0 0 0 0 0 0 0 0 0 0 0 0 0 0 0 127 0"/><feOffset/><feGaussianBlur stdDeviation="2"/><feComposite in2="hardAlpha" operator="out"/><feColorMatrix values="0 0 0 0 1 0 0 0 0 0.899271 0 0 0 0 0.606679 0 0 0 0.18 0"/><feBlend in2="BackgroundImageFix" result="effect1_dropShadow_4907_3317"/><feBlend in="SourceGraphic" in2="effect1_dropShadow_4907_3317" result="shape"/></filter><filter id="e" width="28.41" height="29.019" x="71.248" y="8.384" color-interpolation-filters="sRGB" filterUnits="userSpaceOnUse"><feFlood flood-opacity="0" result="BackgroundImageFix"/><feColorMatrix in="SourceAlpha" result="hardAlpha" values="0 0 0 0 0 0 0 0 0 0 0 0 0 0 0 0 0 0 127 0"/><feOffset/><feGaussianBlur stdDeviation="2"/><feComposite in2="hardAlpha" operator="out"/><feColorMatrix values="0 0 0 0 1 0 0 0 0 0.899271 0 0 0 0 0.606679 0 0 0 0.18 0"/><feBlend in2="BackgroundImageFix" result="effect1_dropShadow_4907_3317"/><feBlend in="SourceGraphic" in2="effect1_dropShadow_4907_3317" result="shape"/></filter><filter id="f" width="30.714" height="28.434" x="91.658" y="8.969" color-interpolation-filters="sRGB" filterUnits="userSpaceOnUse"><feFlood flood-opacity="0" result="BackgroundImageFix"/><feColorMatrix in="SourceAlpha" result="hardAlpha" values="0 0 0 0 0 0 0 0 0 0 0 0 0 0 0 0 0 0 127 0"/><feOffset/><feGaussianBlur stdDeviation="2"/><feComposite in2="hardAlpha" operator="out"/><feColorMatrix values="0 0 0 0 1 0 0 0 0 0.899271 0 0 0 0 0.606679 0 0 0 0.18 0"/><feBlend in2="BackgroundImageFix" result="effect1_dropShadow_4907_3317"/><feBlend in="SourceGraphic" in2="effect1_dropShadow_4907_3317" result="shape"/></filter><filter id="g" width="22.386" height="34.127" x="114.372" y="3.276" color-interpolation-filters="sRGB" filterUnits="userSpaceOnUse"><feFlood flood-opacity="0" result="BackgroundImageFix"/><feColorMatrix in="SourceAlpha" result="hardAlpha" values="0 0 0 0 0 0 0 0 0 0 0 0 0 0 0 0 0 0 127 0"/><feOffset/><feGaussianBlur stdDeviation="2"/><feComposite in2="hardAlpha" operator="out"/><feColorMatrix values="0 0 0 0 1 0 0 0 0 0.899271 0 0 0 0 0.606679 0 0 0 0.18 0"/><feBlend in2="BackgroundImageFix" result="effect1_dropShadow_4907_3317"/><feBlend in="SourceGraphic" in2="effect1_dropShadow_4907_3317" result="shape"/></filter><filter id="h" width="14.332" height="14.278" x="128.758" y="23.125" color-interpolation-filters="sRGB" filterUnits="userSpaceOnUse"><feFlood flood-opacity="0" result="BackgroundImageFix"/><feColorMatrix in="SourceAlpha" result="hardAlpha" values="0 0 0 0 0 0 0 0 0 0 0 0 0 0 0 0 0 0 127 0"/><feOffset/><feGaussianBlur stdDeviation="2"/><feComposite in2="hardAlpha" operator="out"/><feColorMatrix values="0 0 0 0 1 0 0 0 0 0.899271 0 0 0 0 0.606679 0 0 0 0.18 0"/><feBlend in2="BackgroundImageFix" result="effect1_dropShadow_4907_3317"/><feBlend in="SourceGraphic" in2="effect1_dropShadow_4907_3317" result="shape"/></filter></defs></svg>