<svg xmlns="http://www.w3.org/2000/svg" width="165" height="45" fill="none"><path fill="#fff" d="M44.04 38.533h12.685v-3.149h-9.193v-3.7h7.998v-3.148h-7.998v-3.585h9.078v-3.148H44.04zm16.203 0h3.516v-6.55h8.089v-3.217h-8.09V25.02h9.147v-3.217H60.242zm22.806.253c4.482 0 7.308-2.482 7.308-7.538v-9.445h-3.516v9.606c0 2.734-1.424 4.136-3.746 4.136-2.32 0-3.722-1.47-3.722-4.274v-9.468h-3.54v9.583c0 4.895 2.758 7.4 7.216 7.4m11.306-.253h3.47V27.64l8.319 10.893h3.01v-16.73h-3.493V32.35l-8.066-10.548h-3.24zm19.075 0h6.458c5.263 0 8.894-3.654 8.894-8.365v-.046c0-4.711-3.631-8.32-8.894-8.32h-6.458zm6.458-13.536c3.102 0 5.194 2.137 5.194 5.17v.047c0 3.033-2.092 5.124-5.194 5.124h-2.942V24.997zm12.416 13.536h12.686v-3.149h-9.193v-3.7h7.998v-3.148h-7.998v-3.585h9.078v-3.148h-12.571zm19.72-8.572v-4.964h3.792c1.861 0 3.01.85 3.01 2.459v.046c0 1.47-1.103 2.459-2.941 2.459zm-3.516 8.572h3.516v-5.447h3.056l3.7 5.447h4.137l-4.183-6.044c2.16-.759 3.654-2.46 3.654-5.17v-.047c0-1.54-.482-2.85-1.402-3.769-1.103-1.103-2.757-1.7-4.872-1.7h-7.606z"/><path stroke="#fff" stroke-width="4.863" d="m3 29.485 3.365-7.291a.66.66 0 0 1 1.209.024l6.775 16.373a.66.66 0 0 0 1.227-.022l7.537-20.29a.66.66 0 0 1 1.212-.057l8.181 16.938a.66.66 0 0 0 1.23-.112L43.116 1"/></svg>