<svg width="14" height="13" viewBox="0 0 14 13" fill="none" xmlns="http://www.w3.org/2000/svg">
<path id="fa-glyph" opacity="0.5" d="M13.7499 6.56265L8.24988 11.8127C7.93738 12.0939 7.46863 12.0939 7.18738 11.7814C6.90613 11.4689 6.90613 11.0002 7.21863 10.7189L11.3749 6.75015H0.749878C0.312378 6.75015 -0.00012207 6.43765 -0.00012207 6.00015C-0.00012207 5.5939 0.312378 5.25015 0.749878 5.25015H11.3749L7.21863 1.31265C6.90613 1.0314 6.90613 0.531404 7.18738 0.250154C7.46863 -0.0623457 7.96863 -0.0623457 8.24988 0.218904L13.7499 5.4689C13.9061 5.62515 13.9999 5.81265 13.9999 6.00015C13.9999 6.2189 13.9061 6.4064 13.7499 6.56265Z" fill="white"/>
</svg>
