<svg width="38" height="32" viewBox="0 0 38 32" fill="none" xmlns="http://www.w3.org/2000/svg">
<g id="Group">
<path id="AL4" d="M21.4294 4.94625L11.4028 23.3292C17.1639 13.9661 29.1573 18.4643 30.4259 20.2974L21.4352 4.94043L21.4294 4.94625Z" fill="#4F38DD"/>
<path id="AL3" d="M0.666504 32L18.4908 0L20.9873 4.32951L6.19478 32H0.666504Z" fill="#4F38DD"/>
<path id="AL2" d="M30.4145 20.2915L21.4237 4.93457L19.0728 9.38047C19.0728 9.38047 21.8893 14.4956 23.6583 17.7194C28.6396 18.2257 30.4145 20.2915 30.4145 20.2915Z" fill="#8B82E7"/>
<path id="AL1" d="M37.3039 32.0001H31.5079C31.5079 32.0001 26.7478 23.3236 23.6636 17.7139C28.6448 18.2201 30.4197 20.286 30.4197 20.286L37.3039 32.0001Z" fill="white"/>
</g>
</svg>
