<svg width="42" height="32" viewBox="0 0 42 32" fill="none" xmlns="http://www.w3.org/2000/svg">
<g id="Group 13020">
<path id="Vector" d="M35.2413 11.4385C34.8417 11.4385 34.5146 11.7653 34.5146 12.1647C34.5146 12.5642 34.8417 12.891 35.2413 12.891C35.641 12.891 35.968 12.5642 35.968 12.1647C35.968 11.7653 35.641 11.4385 35.2413 11.4385Z" fill="white"/>
<path id="Vector_2" d="M39.8879 10.8012C39.8879 7.24247 36.9891 4.34548 33.4283 4.34548C32.3302 4.34548 31.5752 3.36906 31.1594 2.82839C29.7706 1.02887 27.6672 0 25.3983 0C21.5952 0 18.5592 2.6549 18.1636 6.17324C8.6559 6.44761 0.751014 14.2711 0.0566116 24.2088C-0.108915 26.5934 0.0848719 28.8609 0.686418 31.5642L0.783312 32H13.2059L13.0242 31.306C13.0242 31.306 12.5195 29.3411 12.5195 26.9121C12.5195 26.2665 12.5478 25.6533 12.6003 25.0642C15.3779 25.2942 17.5741 27.6263 17.5741 30.4587C17.5741 30.7855 17.562 31.1002 17.5499 31.419L17.5257 32H28.6038L28.7411 31.4069C29.1246 29.6881 29.2417 27.9168 29.0843 26.1415C28.8259 23.1678 28.0588 20.7268 27.0253 18.782C27.4007 18.4592 27.8206 18.1405 28.2607 17.8136C28.7169 17.4707 29.1892 17.1156 29.6414 16.7283C30.3479 17.2891 31.115 17.7854 31.8498 18.2575C33.9653 19.6172 35.7982 20.7994 35.9475 23.0427C34.5628 22.8975 34.2115 22.1954 33.8118 21.3965C33.4485 20.6622 32.9923 19.7503 31.6398 19.7503C30.57 19.7503 29.4355 20.6582 29.4355 22.3367C29.4355 25.0682 31.9103 27.4649 34.7323 27.4649C38.5919 27.4649 41.1838 24.003 41.1838 18.8546C41.1838 17.5877 40.8851 16.3611 40.5661 15.0579C40.2351 13.7022 39.8919 12.3021 39.8919 10.8012H39.8879ZM3.64167 26.1737C3.64167 18.0033 8.80931 12.0883 12.2894 12.0883C13.5248 12.0883 14.0981 12.7258 14.0981 14.1016C14.0981 15.2152 13.6621 16.4741 13.1614 17.9307C12.5922 19.5769 11.9261 21.5176 11.6031 23.9586C8.25621 24.237 5.61587 27.0453 5.61587 30.4587C5.61587 30.5999 5.62394 30.7452 5.63606 30.8904H4.2957C3.86371 29.3612 3.6457 27.7796 3.6457 26.1778L3.64167 26.1737ZM6.74225 30.8864C6.73014 30.7452 6.72207 30.5999 6.72207 30.4547C6.72207 27.6908 8.80124 25.4112 11.4779 25.0803C11.4295 25.6613 11.4012 26.2666 11.4012 26.904C11.4012 28.6108 11.6273 30.0673 11.7888 30.8824H6.73822L6.74225 30.8864ZM18.862 19.4639C18.1515 18.1445 17.5378 17.0067 17.5378 16.0061C17.5822 14.3679 18.7934 14.1218 19.516 14.1218C20.9896 14.1218 23.6784 15.3524 25.6486 18.5601C24.938 19.3267 24.4374 20.2265 24.4374 21.4208C24.4374 22.2237 24.5908 23.0185 24.7685 23.9344C25.0955 25.621 25.4992 27.707 25.0955 30.8864H21.1874C21.2843 30.3377 21.3853 29.4419 21.4216 28.0419C21.4216 24.2048 20.0045 21.5741 18.862 19.4598V19.4639ZM27.7076 30.8864H26.2138C26.6135 27.6101 26.1976 25.4636 25.8585 23.7246C25.693 22.8652 25.5476 22.1188 25.5476 21.4248C25.5476 20.7308 25.806 20.1256 26.2219 19.597C27.0818 21.3199 27.7358 23.5027 27.974 26.2383C28.1113 27.8038 28.0225 29.3693 27.7116 30.8904L27.7076 30.8864ZM29.601 15.2314C28.5998 14.259 27.9215 13.0889 27.9215 11.4346C27.9215 10.3856 28.5069 9.27197 29.5929 9.27197C30.6022 9.27197 31.1432 10.3856 31.1432 11.4346C31.1432 13.1252 30.4932 14.2872 29.601 15.2314ZM30.5417 22.3326C30.5417 21.1625 31.2563 20.8559 31.6358 20.8559C32.2737 20.8559 32.4473 21.1545 32.8146 21.8848C33.2547 22.7643 33.8441 23.9425 35.8829 24.1402C35.7376 24.9552 35.3702 25.7138 34.8131 26.3432C34.7848 26.3432 34.7606 26.3472 34.7323 26.3472C32.7501 26.3472 30.5457 24.697 30.5457 22.3286L30.5417 22.3326ZM36.3634 26.0567C36.8196 25.2256 37.0658 24.2935 37.0658 23.3252C37.0658 20.287 34.7162 18.778 32.4473 17.3174C31.7529 16.8695 31.0665 16.4297 30.4488 15.9536C31.4783 14.8642 32.2575 13.4722 32.2575 11.4306C32.2575 9.56651 31.115 8.15837 29.597 8.15837C28.079 8.15837 26.8153 9.56651 26.8153 11.4306C26.8153 13.4319 27.651 14.8521 28.7976 15.9778C28.41 16.3046 27.9982 16.6113 27.5905 16.9179C27.2069 17.2044 26.8194 17.4949 26.456 17.8015C24.4011 14.5616 21.5912 13.0082 19.516 13.0082C18.0626 13.0082 16.4881 13.7869 16.4276 15.9859C16.4276 17.281 17.1018 18.5359 17.885 19.9844C18.967 21.9856 20.3114 24.4791 20.3114 28.0217C20.271 29.5912 20.1458 30.4587 20.0611 30.8783H18.6763C18.6763 30.7371 18.6803 30.5919 18.6803 30.4466C18.6803 27.0412 16.0561 24.2411 12.7214 23.9465C13.0403 21.6709 13.6701 19.8391 14.2071 18.2817C14.744 16.7323 15.2043 15.3928 15.2043 14.0895C15.2043 12.1044 14.1385 10.9666 12.2854 10.9666C8.40156 10.9666 2.52739 17.0269 2.52739 26.1616C2.52739 27.7594 2.73329 29.3411 3.13701 30.8743H1.66746C1.16281 28.4695 1.00536 26.4158 1.15877 24.2734C1.8128 14.9247 9.21304 7.56525 18.1232 7.27071C18.2443 9.59476 19.625 11.9793 21.8011 11.9793C23.4766 11.9793 24.5141 10.6277 24.5141 9.37688C24.5141 8.22292 23.8157 6.3185 19.2778 6.16517C19.6573 3.22784 22.1604 1.09747 25.3942 1.09747C27.32 1.09747 29.0964 1.97302 30.2914 3.51028C30.7395 4.08725 31.7852 5.44295 33.4283 5.44295C36.3755 5.44295 38.7776 7.83962 38.7776 10.7891C38.7776 12.4232 39.1369 13.8918 39.4801 15.3121C39.7829 16.5467 40.0655 17.7128 40.0655 18.8466C40.0655 22.5142 38.6283 25.1973 36.3593 26.0527L36.3634 26.0567ZM19.2415 7.28281C21.0098 7.34334 23.4079 7.73068 23.4079 9.38898C23.4079 10.0103 22.9113 10.8819 21.8051 10.8819C20.3517 10.8819 19.3505 9.0783 19.2375 7.28281H19.2415Z" fill="white"/>
</g>
</svg>
