<svg width="68" height="18" viewBox="0 0 68 18" fill="none" xmlns="http://www.w3.org/2000/svg">
<g id="Group 13023">
<path id="Vector" d="M8.68598 15.0478C8.03195 15.532 7.13569 16.0162 5.99719 16.0162C3.81709 16.0162 1.87923 14.0795 1.87923 11.5376C1.87923 8.99563 3.81709 7.05892 5.99719 7.05892C7.13569 7.05892 8.03195 7.5431 8.61331 8.02728C8.95244 8.31778 9.24312 8.6325 9.50958 8.99563L10.7207 7.78519C10.3574 7.37364 9.9456 6.9863 9.48535 6.64737C8.68598 6.06636 7.52326 5.48535 5.99719 5.48535C2.82394 5.48535 0.183594 8.14832 0.183594 11.5376C0.183594 14.9268 2.82394 17.5898 5.99719 17.5898C7.52326 17.5898 8.71021 16.9845 9.55803 16.3793C10.0425 16.0162 10.4785 15.6288 10.8419 15.1689L9.63069 14.0795C9.36424 14.4426 9.04933 14.7573 8.68598 15.0478Z" fill="white"/>
<path id="Vector_2" d="M16.7939 5.48975C15.3647 5.48975 14.3231 6.02234 13.5722 6.57914C13.1362 6.89386 12.7486 7.25699 12.4337 7.66854L13.5238 8.75793C13.7902 8.44322 14.0809 8.17692 14.3958 7.91063C14.9529 7.49908 15.7523 7.06332 16.7939 7.06332C18.5138 7.06332 19.7007 8.24955 19.7007 9.96837L15.2194 10.6946C13.0151 11.0578 11.8281 12.2682 11.8281 14.2049C11.8281 15.8995 13.5238 17.5941 15.9461 17.5941C17.2057 17.5941 18.1262 17.1584 18.7802 16.6984C19.1436 16.4321 19.4585 16.1174 19.7007 15.7785V17.3521H21.3963V9.96837C21.3963 7.42645 19.4585 5.48975 16.7939 5.48975ZM19.7007 12.1472C19.7007 14.4712 18.1504 16.0206 15.9461 16.0206C14.3716 16.0206 13.5238 15.1733 13.5238 14.2049C13.5238 13.1155 14.2505 12.4135 15.7039 12.1472L19.7007 11.4209V12.1472Z" fill="white"/>
<path id="Vector_3" d="M28.8174 5.48975C27.5336 5.48975 26.6373 5.97392 25.9833 6.4581C25.62 6.7486 25.3051 7.06332 25.0628 7.42645V5.73184H23.3672V17.3521H25.0628V10.9367C25.0628 8.61268 26.6373 7.06332 28.6963 7.06332C30.5373 7.06332 31.8454 8.3948 31.8454 10.4526V17.3521H33.541V10.4526C33.541 7.42645 31.6031 5.48975 28.8174 5.48975Z" fill="white"/>
<path id="Vector_4" d="M44.5516 7.42631C44.2852 7.06318 43.9461 6.74847 43.5585 6.45796C42.8802 5.97379 41.9113 5.48961 40.5548 5.48961C37.4058 5.48961 34.8623 8.03153 34.8623 11.5418C34.8623 15.0521 37.4058 17.594 40.5548 17.594C41.9113 17.594 42.8802 17.1098 43.5585 16.6257C43.9461 16.3351 44.2852 16.0204 44.5516 15.6573V17.3519H46.2473V0.405762H44.5516V7.42631ZM40.5548 16.0204C38.3505 16.0204 36.5579 14.1806 36.5579 11.5418C36.5579 8.90305 38.3505 7.06318 40.5548 7.06318C42.5896 7.06318 44.5516 8.99988 44.5516 11.5418C44.5516 14.0837 42.5896 16.0204 40.5548 16.0204Z" fill="white"/>
<path id="Vector_5" d="M53.7267 5.49023C50.4566 5.49023 47.792 8.1532 47.792 11.5424C47.792 14.9317 50.4566 17.5946 53.7267 17.5946C56.9969 17.5946 59.6614 14.9317 59.6614 11.5424C59.6614 8.1532 56.9969 5.49023 53.7267 5.49023ZM53.7267 16.0211C51.4255 16.0211 49.4876 14.0602 49.4876 11.5424C49.4876 9.02472 51.4255 7.06381 53.7267 7.06381C56.0279 7.06381 57.9658 9.00051 57.9658 11.5424C57.9658 14.0844 56.0279 16.0211 53.7267 16.0211Z" fill="white"/>
<path id="Vector_6" d="M66.7745 5.49023C65.418 5.49023 64.4975 5.9502 63.8435 6.41017C63.4801 6.67647 63.1652 6.99118 62.8988 7.30589V5.73232H61.2031V17.3525H62.8988V10.9372C62.8988 8.63738 64.5944 7.18485 66.5323 7.18485H67.259V5.49023H66.7745Z" fill="white"/>
</g>
</svg>
