<svg width="104" height="18" viewBox="0 0 104 18" fill="none" xmlns="http://www.w3.org/2000/svg">
<g id="wordmark">
<path id="Vector" d="M0.555664 17.3491V0.682472C0.555664 0.613935 0.612018 0.557582 0.680554 0.557582H3.47837C3.54082 0.557582 3.59412 0.604796 3.60174 0.66724L3.8637 2.70963C3.87893 2.82386 4.02362 2.85889 4.08911 2.76446C5.19483 1.15918 7.2357 0.0473633 9.62078 0.0473633C13.2273 0.0473633 15.5896 2.47356 15.5896 6.27202V17.3506C15.5896 17.4191 15.5332 17.4755 15.4647 17.4755H11.948C11.8794 17.4755 11.8231 17.4191 11.8231 17.3506V6.46391C11.8231 4.58144 10.5788 3.3356 8.47088 3.3356C6.0127 3.3356 4.35411 5.02769 4.32213 7.23001V17.3506C4.32213 17.4191 4.26578 17.4755 4.19724 17.4755H0.680554C0.612018 17.474 0.555664 17.4176 0.555664 17.3491Z" fill="white"/>
<path id="Vector_2" d="M17.6826 17.3491V0.682507C17.6826 0.613971 17.739 0.557617 17.8075 0.557617H21.3242C21.3927 0.557617 21.4491 0.613971 21.4491 0.682507V17.3491C21.4491 17.4176 21.3927 17.474 21.3242 17.474H17.8075C17.739 17.474 17.6826 17.4176 17.6826 17.3491Z" fill="white"/>
<path id="Vector_3" d="M23.6709 17.3491V0.682507C23.6709 0.613971 23.7273 0.557617 23.7958 0.557617H26.5936C26.6561 0.557617 26.7094 0.603307 26.717 0.665751L27.0962 3.48032C27.113 3.60064 27.2729 3.62806 27.3292 3.52144C28.441 1.45468 29.5041 0.586555 32.1649 0.586555H32.6858C32.7512 0.586555 32.8045 0.639861 32.8045 0.705352L34.1174 4.02709C34.1189 4.03166 34.1159 4.03623 34.1113 4.03623H33.0239C29.5133 4.03623 27.4389 5.9187 27.4389 9.11098V17.3491C27.4389 17.4176 27.3825 17.474 27.314 17.474H23.7973C23.7273 17.474 23.6709 17.4176 23.6709 17.3491Z" fill="white"/>
<path id="Vector_4" d="M41.364 17.3978L34.4143 0.729721C34.3793 0.647477 34.4402 0.557617 34.5301 0.557617H38.3438C38.3956 0.557617 38.4412 0.589599 38.4595 0.636813L43.2586 12.745C43.2997 12.85 43.449 12.85 43.4901 12.745L48.2587 0.638338C48.277 0.591124 48.3242 0.559137 48.3745 0.559137H52.1882C52.2765 0.559137 52.3374 0.65052 52.3039 0.731241L45.3543 17.3978C45.3345 17.445 45.2888 17.474 45.2386 17.474H41.4797C41.4294 17.474 41.3838 17.4435 41.364 17.3978Z" fill="white"/>
<path id="Vector_5" d="M51.6602 8.92057C51.6602 3.6859 54.8844 0.0473633 59.385 0.0473633C61.8919 0.0473633 63.9983 1.16223 65.1375 2.90458C65.2015 3.00206 65.3507 2.96703 65.366 2.85127L65.6295 0.66724C65.6371 0.604796 65.6904 0.557582 65.7528 0.557582H68.5491C68.6177 0.557582 68.674 0.613935 68.674 0.682472V17.3491C68.674 17.4176 68.6177 17.474 68.5491 17.474H65.0644C64.9959 17.474 64.9395 17.4176 64.9395 17.3491V15.5808C64.9395 15.459 64.7857 15.4102 64.7141 15.5077C63.5992 17.0338 61.7792 17.9522 59.5129 17.9522C54.9469 17.9522 51.6602 14.2497 51.6602 8.92057ZM64.938 8.88859C64.938 5.53639 63.0235 3.20766 60.2775 3.20766C57.469 3.20766 55.5211 5.5699 55.5211 8.95256C55.5211 12.3672 57.4355 14.7614 60.2135 14.7614C62.99 14.7614 64.938 12.3352 64.938 8.88859Z" fill="white"/>
<path id="Vector_6" d="M70.5703 17.3491V0.682472C70.5703 0.613935 70.6267 0.557582 70.6952 0.557582H73.493C73.5555 0.557582 73.6088 0.604796 73.6164 0.66724L73.8783 2.70963C73.8936 2.82386 74.0383 2.85889 74.1037 2.76446C75.2095 1.15918 77.2503 0.0473633 79.6354 0.0473633C83.242 0.0473633 85.6042 2.47356 85.6042 6.27202V17.3506C85.6042 17.4191 85.5478 17.4755 85.4793 17.4755H81.9626C81.8941 17.4755 81.8377 17.4191 81.8377 17.3506V6.46391C81.8377 4.58144 80.5934 3.3356 78.4855 3.3356C76.0273 3.3356 74.3688 5.02769 74.3368 7.23001V17.3506C74.3368 17.4191 74.2804 17.4755 74.2119 17.4755H70.6952C70.6267 17.474 70.5703 17.4176 70.5703 17.3491Z" fill="white"/>
<path id="Vector_7" d="M86.9453 8.92057C86.9453 3.6859 90.1696 0.0473633 94.6702 0.0473633C97.1771 0.0473633 99.2834 1.16223 100.423 2.90458C100.487 3.00206 100.636 2.96703 100.651 2.85127L100.915 0.66724C100.922 0.604796 100.976 0.557582 101.038 0.557582H103.834C103.903 0.557582 103.959 0.613935 103.959 0.682472V17.3491C103.959 17.4176 103.903 17.474 103.834 17.474H100.35C100.281 17.474 100.225 17.4176 100.225 17.3491V15.5808C100.225 15.459 100.071 15.4102 99.9993 15.5077C98.8844 17.0338 97.0644 17.9522 94.7981 17.9522C90.2335 17.9522 86.9453 14.2497 86.9453 8.92057ZM100.223 8.88859C100.223 5.53639 98.3087 3.20766 95.5627 3.20766C92.7542 3.20766 90.8062 5.5699 90.8062 8.95256C90.8062 12.3672 92.7207 14.7614 95.4987 14.7614C98.2767 14.7614 100.223 12.3352 100.223 8.88859Z" fill="white"/>
</g>
</svg>
